<svg xmlns="http://www.w3.org/2000/svg" width="50" height="49.167" viewBox="0 0 50 49.167">
  <path id="github" d="M25.021,0a25.232,25.232,0,0,0-7.912,49.119c1.243.251,1.7-.542,1.7-1.21,0-.584-.041-2.587-.041-4.674-6.96,1.5-8.41-3-8.41-3C9.238,37.309,7.58,36.558,7.58,36.558c-2.278-1.544.166-1.544.166-1.544A5.247,5.247,0,0,1,11.6,37.6c2.237,3.839,5.841,2.754,7.29,2.087a5.37,5.37,0,0,1,1.574-3.38c-5.551-.584-11.392-2.754-11.392-12.437a9.868,9.868,0,0,1,2.568-6.76,9.168,9.168,0,0,1,.249-6.677S14,9.765,18.765,13.02a23.852,23.852,0,0,1,12.51,0c4.764-3.255,6.877-2.587,6.877-2.587A9.167,9.167,0,0,1,38.4,17.11a9.679,9.679,0,0,1,2.568,6.76c0,9.682-5.841,11.81-11.433,12.437a5.986,5.986,0,0,1,1.7,4.674c0,3.38-.041,6.093-.041,6.927,0,.668.456,1.461,1.7,1.211A25.232,25.232,0,0,0,25.021,0Z" fill="#020304" fill-rule="evenodd"/>
</svg>
