<svg xmlns="http://www.w3.org/2000/svg" width="50" height="50" viewBox="0 0 50 50">
  <path id="instagram" d="M25,4.506c6.675,0,7.467.025,10.1.146,6.775.308,9.94,3.523,10.248,10.248.121,2.635.144,3.427.144,10.1s-.025,7.467-.144,10.1c-.31,6.719-3.467,9.94-10.248,10.248-2.638.121-3.425.146-10.1.146s-7.467-.025-10.1-.146c-6.792-.31-9.94-3.54-10.248-10.25C4.529,32.467,4.5,31.677,4.5,25s.027-7.465.146-10.1C4.96,8.175,8.117,4.958,14.9,4.65c2.637-.119,3.427-.144,10.1-.144ZM25,0c-6.79,0-7.64.029-10.306.15C5.615.567.569,5.6.152,14.692.029,17.36,0,18.21,0,25s.029,7.642.15,10.308C.567,44.387,5.6,49.433,14.692,49.85,17.36,49.971,18.21,50,25,50s7.642-.029,10.308-.15c9.071-.417,14.129-5.454,14.54-14.542C49.971,32.642,50,31.79,50,25s-.029-7.64-.15-10.306C49.442,5.623,44.4.569,35.31.152,32.642.029,31.79,0,25,0Zm0,12.162A12.839,12.839,0,1,0,37.838,25,12.838,12.838,0,0,0,25,12.162Zm0,21.171A8.333,8.333,0,1,1,33.333,25,8.332,8.332,0,0,1,25,33.333ZM38.346,8.656a3,3,0,1,0,3,3A3,3,0,0,0,38.346,8.656Z" fill="#020304"/>
</svg>
