<svg xmlns="http://www.w3.org/2000/svg" width="22.001" height="22.042" viewBox="0 0 22.001 22.042">
  <path id="phone" d="M22.111,17V20.02a2.011,2.011,0,0,1-2.192,2.011,19.9,19.9,0,0,1-8.678-3.087,19.609,19.609,0,0,1-6.034-6.034A19.9,19.9,0,0,1,2.12,4.192,2.011,2.011,0,0,1,4.121,2H7.138A2.011,2.011,0,0,1,9.149,3.73a12.912,12.912,0,0,0,.7,2.826A2.011,2.011,0,0,1,9.4,8.677L8.123,9.954a16.089,16.089,0,0,0,6.034,6.034l1.277-1.277a2.011,2.011,0,0,1,2.122-.453,12.912,12.912,0,0,0,2.826.7A2.011,2.011,0,0,1,22.111,17Z" transform="translate(-1.111 -1)" fill="none" stroke="#fe4a08" stroke-linecap="round" stroke-linejoin="round" stroke-width="2"/>
</svg>
