<svg xmlns="http://www.w3.org/2000/svg" width="50" height="40.633" viewBox="0 0 50 40.633">
  <path id="twitter" d="M50,7.058a20.481,20.481,0,0,1-5.892,1.615A10.275,10.275,0,0,0,48.619,3,20.549,20.549,0,0,1,42.1,5.488a10.265,10.265,0,0,0-17.481,9.354A29.121,29.121,0,0,1,3.481,4.125a10.272,10.272,0,0,0,3.173,13.7A10.215,10.215,0,0,1,2.01,16.538a10.266,10.266,0,0,0,8.227,10.188A10.282,10.282,0,0,1,5.6,26.9a10.266,10.266,0,0,0,9.583,7.123A20.625,20.625,0,0,1,0,38.273a29.04,29.04,0,0,0,15.725,4.608c19.046,0,29.806-16.085,29.156-30.512A20.885,20.885,0,0,0,50,7.058Z" transform="translate(0 -2.248)"/>
</svg>
